<svg xmlns="http://www.w3.org/2000/svg" viewBox="0 0 96 23"><path fill="#fff" d="M0 0h48.507v23H0V0z"/><path d="M48.5 0H96v23H48.5V0z" fill="#e20015"/><path d="M95.325 0H0v23h96V0h-.675zm0 22.325H.675V.675h94.65v21.65z"/><path fill="#fff" d="M71.311 18.162h-3.013v-1.03c-.801 1.285-7.05 2.61-7.05-3.055v-6.16h3.13v5.942c0 2.478 3.803 2.509 3.803-.454V7.917h3.13v10.245zm2.513-4.096c0 4.222 3.381 4.373 5.697 4.102v-2.58c-1.017 0-2.567.185-2.567-1.264v-3.841h2.567V7.917h-2.567V4.788h-3.13v9.278zm8.104 2.269v1.827h8.658v-2.566H85.79l4.732-5.851.003-1.828h-8.616v2.567h4.839l-4.82 5.851z"/><path d="M13.565 18.162l-2.58-4.23-2.58 4.23H4.608l4.318-6.787-4.17-6.586h3.77l2.46 4.03 2.46-4.03h3.77l-4.17 6.586 4.318 6.787h-3.799zm32.515 0l-4.318-6.787 4.17-6.586h-3.77l-2.46 4.03-2.46-4.03h-3.77l4.17 6.586-4.318 6.787h3.797l2.58-4.23 2.58 4.23h3.799zm-14.318 0l-4.318-6.787 4.17-6.586h-3.77l-2.46 4.03-2.46-4.03h-3.77l4.17 6.586-4.318 6.787h3.797l2.58-4.23 2.58 4.23h3.799zm27.443-3.048H54.74V4.812h-3.284v13.35h7.749v-3.048z" fill="#00151d"/></svg>