<svg xmlns="http://www.w3.org/2000/svg"  viewBox="0 0 100 100" width="100px" height="100px"><path fill="#c7ede6" d="M87.215,56.711C88.352,54.555,89,52.105,89,49.5c0-6.621-4.16-12.258-10-14.477 c0-0.008,0-0.016,0-0.023c0-11.598-9.402-21-21-21c-9.785,0-17.98,6.699-20.313,15.758C36.211,29.273,34.637,29,33,29 c-7.691,0-14.023,5.793-14.891,13.254C12.906,43.352,9,47.969,9,53.5C9,59.852,14.148,65,20.5,65c0.176,0,0.352-0.012,0.527-0.023 C21.023,65.152,21,65.324,21,65.5C21,76.82,30.18,86,41.5,86c6.437,0,12.176-2.973,15.934-7.613C59.613,80.609,62.641,82,66,82 c4.648,0,8.676-2.648,10.664-6.52C77.719,75.816,78.836,76,80,76c6.074,0,11-4.926,11-11C91,61.687,89.531,58.727,87.215,56.711z"/><path fill="#fff" d="M32.405,80H22.5c-0.276,0-0.5-0.224-0.5-0.5s0.224-0.5,0.5-0.5h9.905c0.276,0,0.5,0.224,0.5,0.5 S32.682,80,32.405,80z"/><path fill="#fff" d="M35.5,80h-1c-0.276,0-0.5-0.224-0.5-0.5s0.224-0.5,0.5-0.5h1c0.276,0,0.5,0.224,0.5,0.5 S35.777,80,35.5,80z"/><path fill="#fff" d="M40.491,82H31.5c-0.276,0-0.5-0.224-0.5-0.5s0.224-0.5,0.5-0.5h8.991c0.276,0,0.5,0.224,0.5,0.5 S40.767,82,40.491,82z"/><path fill="#fff" d="M29.5,82h-1c-0.276,0-0.5-0.224-0.5-0.5s0.224-0.5,0.5-0.5h1c0.276,0,0.5,0.224,0.5,0.5 S29.777,82,29.5,82z"/><path fill="#fff" d="M26.5,82h-2c-0.276,0-0.5-0.224-0.5-0.5s0.224-0.5,0.5-0.5h2c0.276,0,0.5,0.224,0.5,0.5 S26.777,82,26.5,82z"/><path fill="#fff" d="M32.5,84h-2c-0.276,0-0.5-0.224-0.5-0.5s0.224-0.5,0.5-0.5h2c0.276,0,0.5,0.224,0.5,0.5 S32.776,84,32.5,84z"/><path fill="#fff" d="M35.5,75c-0.177,0-0.823,0-1,0c-0.276,0-0.5,0.224-0.5,0.5c0,0.276,0.224,0.5,0.5,0.5 c0.177,0,0.823,0,1,0c0.276,0,0.5-0.224,0.5-0.5C36,75.224,35.776,75,35.5,75z"/><path fill="#fff" d="M35.5,77c-0.177,0-4.823,0-5,0c-0.276,0-0.5,0.224-0.5,0.5c0,0.276,0.224,0.5,0.5,0.5 c0.177,0,4.823,0,5,0c0.276,0,0.5-0.224,0.5-0.5C36,77.224,35.776,77,35.5,77z"/><path fill="#fff" d="M40.5,79c-0.177,0-2.823,0-3,0c-0.276,0-0.5,0.224-0.5,0.5c0,0.276,0.224,0.5,0.5,0.5 c0.177,0,2.823,0,3,0c0.276,0,0.5-0.224,0.5-0.5C41,79.224,40.776,79,40.5,79z"/><path fill="#fff" d="M86.5,47h-10c-0.276,0-0.5-0.224-0.5-0.5s0.224-0.5,0.5-0.5h10c0.276,0,0.5,0.224,0.5,0.5 S86.776,47,86.5,47z"/><path fill="#fff" d="M90.5,47h-2c-0.276,0-0.5-0.224-0.5-0.5s0.224-0.5,0.5-0.5h2c0.276,0,0.5,0.224,0.5,0.5 S90.776,47,90.5,47z"/><path fill="#fff" d="M95.5,49h-10c-0.276,0-0.5-0.224-0.5-0.5s0.224-0.5,0.5-0.5h10c0.276,0,0.5,0.224,0.5,0.5 S95.777,49,95.5,49z"/><path fill="#fff" d="M83.5,49h-1c-0.276,0-0.5-0.224-0.5-0.5s0.224-0.5,0.5-0.5h1c0.276,0,0.5,0.224,0.5,0.5 S83.776,49,83.5,49z"/><path fill="#fff" d="M80.375,49H78.5c-0.276,0-0.5-0.224-0.5-0.5s0.224-0.5,0.5-0.5h1.875c0.276,0,0.5,0.224,0.5,0.5 S80.651,49,80.375,49z"/><path fill="#fff" d="M89.5,45h-5c-0.276,0-0.5-0.224-0.5-0.5s0.224-0.5,0.5-0.5h5c0.276,0,0.5,0.224,0.5,0.5 S89.777,45,89.5,45z"/><path fill="#fff" d="M86.5,51h-2c-0.276,0-0.5-0.224-0.5-0.5s0.224-0.5,0.5-0.5h2c0.276,0,0.5,0.224,0.5,0.5 S86.776,51,86.5,51z"/><path fill="#fdfcef" d="M35.75,38.5c0,0,3.64,0,6.125,0s4.5-2.015,4.5-4.5c0-2.333-1.782-4.229-4.055-4.455 c0.022-0.181,0.055-0.358,0.055-0.545c0-2.485-2.015-4.5-4.5-4.5c-1.438,0-2.703,0.686-3.527,1.736 c-0.14-2.636-2.302-4.736-4.973-4.736c-2.761,0-5,2.239-5,5c0,0.446,0.077,0.87,0.187,1.282c-0.642-0.777-1.6-1.282-2.687-1.282 c-1.781,0-3.234,1.335-3.455,3.055c-0.181-0.022-0.358-0.055-0.545-0.055c-2.485,0-4.5,2.015-4.5,4.5s2.015,4.5,4.5,4.5 s9.5,0,9.5,0h5.375V39h3V38.5z"/><path fill="#472b29" d="M29.375,21c-3.033,0-5.5,2.467-5.5,5.5c0,0.016,0,0.031,0,0.047c-0.602-0.354-1.29-0.547-2-0.547 c-1.831,0-3.411,1.261-3.858,3.005C17.97,29.002,17.923,29,17.875,29c-2.757,0-5,2.243-5,5s2.243,5,5,5H32.75 c0.276,0,0.5-0.224,0.5-0.5s-0.224-0.5-0.5-0.5H17.875c-2.206,0-4-1.794-4-4s1.794-4,4-4c0.117,0,0.23,0.017,0.343,0.032 l0.141,0.019c0.021,0.003,0.041,0.004,0.062,0.004c0.246,0,0.462-0.185,0.495-0.437C19.107,28.125,20.379,27,21.875,27 c0.885,0,1.723,0.401,2.301,1.1c0.098,0.118,0.241,0.182,0.386,0.182c0.078,0,0.156-0.018,0.228-0.056 c0.209-0.107,0.314-0.346,0.254-0.573c-0.116-0.436-0.17-0.802-0.17-1.153c0-2.481,2.019-4.5,4.5-4.5 c2.381,0,4.347,1.872,4.474,4.263c0.011,0.208,0.15,0.387,0.349,0.45c0.05,0.016,0.101,0.024,0.152,0.024 c0.15,0,0.296-0.069,0.392-0.192C35.513,25.563,36.654,25,37.875,25c2.206,0,4,1.794,4,4c0,0.117-0.017,0.23-0.032,0.343 l-0.019,0.141c-0.016,0.134,0.022,0.268,0.106,0.373c0.084,0.105,0.207,0.172,0.34,0.185c2.055,0.205,3.604,1.906,3.604,3.958 c0,2.206-1.794,4-4,4H35.75c-0.276,0-0.5,0.224-0.5,0.5s0.224,0.5,0.5,0.5h6.125c2.757,0,5-2.243,5-5 c0-2.397-1.689-4.413-4.003-4.877c0.002-0.041,0.003-0.082,0.003-0.123c0-2.757-2.243-5-5-5c-1.176,0-2.293,0.416-3.183,1.164 C34.094,22.76,31.93,21,29.375,21L29.375,21z"/><path fill="#472b29" d="M27.875,28c-1.403,0-2.609,0.999-2.913,2.341C24.595,30.119,24.176,30,23.75,30 c-1.202,0-2.198,0.897-2.353,2.068C21.194,32.022,21.001,32,20.812,32c-1.529,0-2.811,1.2-2.918,2.732 C17.885,34.87,17.989,34.99,18.126,35c0.006,0,0.012,0,0.018,0c0.13,0,0.24-0.101,0.249-0.232 c0.089-1.271,1.151-2.268,2.419-2.268c0.229,0,0.47,0.042,0.738,0.127c0.022,0.007,0.045,0.01,0.067,0.01 c0.055,0,0.11-0.02,0.156-0.054c0.064-0.047,0.102-0.129,0.102-0.209c0-1.034,0.841-1.875,1.875-1.875 c0.447,0,0.885,0.168,1.231,0.473c0.047,0.041,0.106,0.063,0.165,0.063c0.032,0,0.063-0.006,0.093-0.019 c0.088-0.035,0.148-0.117,0.155-0.212c0.102-1.292,1.191-2.305,2.479-2.305c0.208,0,0.425,0.034,0.682,0.107 c0.023,0.007,0.047,0.01,0.07,0.01c0.109,0,0.207-0.073,0.239-0.182c0.038-0.133-0.039-0.271-0.172-0.309 C28.392,28.04,28.131,28,27.875,28L27.875,28z"/><path fill="#472b29" d="M41.758,29.5c-1.326,0-2.508,0.897-2.874,2.182c-0.038,0.133,0.039,0.271,0.172,0.309 C39.08,31.997,39.103,32,39.125,32c0.109,0,0.209-0.072,0.24-0.182C39.67,30.748,40.654,30,41.758,30 c0.117,0,0.23,0.014,0.342,0.029c0.012,0.002,0.023,0.003,0.035,0.003c0.121,0,0.229-0.092,0.246-0.217 c0.019-0.137-0.077-0.263-0.214-0.281C42.033,29.516,41.897,29.5,41.758,29.5L41.758,29.5z"/><path fill="#f1bc19" d="M52.554,75.727c-9.3-0.001-17.858-6.526-21.297-16.238l-0.2-0.564l-0.589,0.11 c-0.118,0.022-0.239,0.033-0.359,0.033c-1.129,0-2.297-0.951-2.297-2.543c0-17.418,9.74-24.501,11.692-25.744 c2.17-1.478,4.543-2.492,7.073-3.028c1.337-0.283,2.708-0.427,4.074-0.427c0.876,0,1.764,0.059,2.639,0.176l0.35,0.06 c11.347,1.879,17.057,8.803,19.848,14.282c0.433,0.848,0.092,2.282-0.674,2.841l-0.391,0.285l0.128,0.466 c0.142,0.517,0.275,1.04,0.388,1.573c2.775,13.109-4.533,25.8-16.293,28.29C55.3,75.583,53.924,75.727,52.554,75.727 C52.555,75.727,52.555,75.727,52.554,75.727z"/><path fill="#472b29" d="M50.652,28.025c0.834,0,1.679,0.056,2.514,0.166c0.097,0.018,0.218,0.038,0.361,0.062 c11.058,1.831,16.62,8.574,19.338,13.909c0.276,0.541,0.024,1.602-0.464,1.958l-0.781,0.57l0.256,0.932 c0.16,0.584,0.28,1.071,0.378,1.533c2.696,12.73-4.37,25.049-15.752,27.459c-1.298,0.275-2.627,0.415-3.947,0.415 c-9.004,0-17.298-6.338-20.637-15.771l-0.4-1.129l-1.177,0.22c-0.075,0.014-0.153,0.021-0.231,0.021 c-0.663,0-1.598-0.572-1.598-1.843c0-17.052,9.47-23.945,11.404-25.178c2.076-1.414,4.366-2.393,6.806-2.91 C48.012,28.164,49.334,28.025,50.652,28.025 M50.652,26.625c-1.397,0-2.808,0.143-4.22,0.442c-2.68,0.568-5.135,1.645-7.304,3.123 c-2.291,1.458-12.016,8.689-12.016,26.335c0,1.999,1.498,3.243,2.998,3.243c0.163,0,0.327-0.015,0.488-0.045 c3.542,10.005,12.412,16.704,21.957,16.704c1.403,0,2.82-0.145,4.237-0.445c12.157-2.575,19.693-15.612,16.832-29.119 c-0.116-0.547-0.252-1.083-0.398-1.614c1.037-0.756,1.472-2.575,0.886-3.725c-6.625-13-18.875-14.375-20.729-14.718 C52.482,26.687,51.57,26.625,50.652,26.625L50.652,26.625z"/><circle cx="43.112" cy="46.52" r="7" fill="#472b29"/><g><circle cx="40.612" cy="49.02" r="1.5" fill="#fff"/></g><g><circle cx="44.112" cy="44.52" r="3" fill="#fff"/></g><g><circle cx="64.612" cy="38.02" r="6.5" fill="#472b29"/></g><g><circle cx="62.612" cy="41.02" r="1.5" fill="#fff"/></g><g><circle cx="66.112" cy="36.52" r="3" fill="#fff"/></g><g><path fill="#f1bc19" d="M49.112,61.525c0,0-5.875-11.5,5-18c9.375-5.125,15.915,3.03,17,6c2.375,6.5-3,8.875-6.375,3.25 c-2.625-4.375-5.708-5.4-7.625-4.25c-1.875,1.125-1.875,6.125-1.125,9.375C57.237,62.9,52.362,66.15,49.112,61.525z"/><path fill="#472b29" d="M52.666,64.248c-1.254,0-2.703-0.643-3.963-2.436c-0.014-0.019-0.025-0.039-0.036-0.06 c-0.061-0.119-5.959-11.994,5.188-18.657c3.47-1.896,6.866-2.233,10.117-1.01c3.961,1.491,6.834,5.147,7.609,7.268 c1.328,3.636,0.311,6.033-1.288,6.796c-1.59,0.759-4.06,0.092-5.985-3.117c-1.17-1.949-2.508-3.335-3.87-4.006 c-1.128-0.556-2.218-0.583-3.069-0.073c-1.475,0.885-1.688,5.394-0.895,8.834c0.782,3.129-0.652,5.378-2.317,6.139 C53.718,64.127,53.21,64.248,52.666,64.248z M49.542,61.267c1.232,1.737,2.8,2.39,4.199,1.75c1.301-0.595,2.407-2.412,1.761-4.996 c-0.768-3.329-0.854-8.601,1.354-9.925c1.149-0.69,2.58-0.679,4.024,0.033c1.535,0.756,3.018,2.274,4.286,4.388 c1.593,2.655,3.553,3.277,4.697,2.729c1.189-0.568,1.893-2.504,0.779-5.55c-0.558-1.525-3.008-5.164-7.022-6.675 c-2.963-1.115-6.083-0.799-9.268,0.942C44.186,50.041,49.155,60.492,49.542,61.267z"/></g><g><ellipse cx="58.954" cy="48.409" fill="#472b29" rx="4.302" ry="2.633" transform="rotate(-30 58.95 48.412)"/></g><g><path fill="#472b29" d="M61.612,53.308c0,0-0.246,2.125-2.5,1.375s-1.792,1.625-0.25,1.875 c1.542,0.25,3.698,0.134,4.254-2.25C63.612,52.183,61.73,52.558,61.612,53.308z"/></g><g><path fill="#472b29" d="M59.599,56.832c-0.274,0-0.537-0.021-0.776-0.06c-0.771-0.125-1.282-0.699-1.446-1.213 c-0.129-0.401-0.059-0.786,0.188-1.029c0.227-0.224,0.692-0.428,1.628-0.117c0.63,0.21,1.141,0.195,1.513-0.042 c0.565-0.36,0.659-1.117,0.66-1.125l0.001-0.01c0.051-0.319,0.313-0.598,0.688-0.729c0.387-0.136,0.795-0.07,1.061,0.173 c0.245,0.224,0.487,0.693,0.244,1.656C62.885,56.219,61.065,56.832,59.599,56.832z M58.339,54.754 c-0.189,0-0.335,0.044-0.424,0.131c-0.157,0.156-0.097,0.416-0.063,0.521c0.117,0.368,0.487,0.781,1.05,0.872 c1.337,0.217,3.49-0.156,3.972-2.064c0.142-0.564,0.107-0.978-0.097-1.165c-0.156-0.142-0.391-0.129-0.559-0.07 c-0.192,0.068-0.336,0.2-0.359,0.332c-0.012,0.096-0.147,1.011-0.887,1.482c-0.506,0.323-1.16,0.354-1.939,0.095 C58.766,54.798,58.53,54.754,58.339,54.754z"/></g><g><path fill="#fff" d="M59.873,54.806c0.041,0.857,1.215,1.075,1.284-0.075c0.01-0.163,0.013-0.308,0.014-0.447 C60.912,54.593,60.508,54.843,59.873,54.806z"/><path fill="#fff" d="M59.112,54.65c-0.506-0.168-0.874-0.179-1.124-0.091c0,0.005,0,0.011-0.001,0.016 c-0.031,0.888,1.119,1.15,1.271,0.115C59.209,54.675,59.163,54.667,59.112,54.65z"/><path fill="#fff" d="M62.664,52.718c-0.436-0.126-0.99,0.161-1.052,0.557c0,0-0.032,0.258-0.165,0.561 c0.269,0.576,1.15,0.605,1.21-0.387C62.674,53.166,62.673,52.931,62.664,52.718z"/></g><g><path fill="#472b29" d="M35.112,42.019c-0.097,0-0.193-0.028-0.278-0.085c-0.229-0.154-0.29-0.462-0.138-0.691 c0.086-0.129,2.184-3.176,9.278-5.203c2.725-0.909,3.683-2.727,3.691-2.745c0.126-0.244,0.425-0.344,0.672-0.219 c0.245,0.124,0.345,0.423,0.222,0.669c-0.045,0.089-1.129,2.197-4.289,3.251c-6.715,1.919-8.724,4.776-8.743,4.805 C35.43,41.942,35.272,42.019,35.112,42.019z"/></g><g><path fill="#472b29" d="M64.237,31.646c-0.063,0-0.128-0.012-0.19-0.038c-1.854-0.764-4.211-0.392-5.77-0.146l-0.339,0.053 c-1.69,0.26-3.709-0.112-3.793-0.128c-0.271-0.051-0.45-0.312-0.399-0.583c0.051-0.271,0.306-0.451,0.583-0.399 c0.02,0.003,1.937,0.356,3.457,0.122l0.336-0.052c1.669-0.263,4.193-0.661,6.306,0.209c0.255,0.105,0.377,0.397,0.271,0.653 C64.62,31.529,64.434,31.645,64.237,31.646z"/></g><g><path fill="#472b29" d="M30.425,59.401c-0.057,0-0.092-0.002-0.1-0.003c-0.275-0.02-0.481-0.26-0.462-0.535 c0.021-0.275,0.293-0.482,0.532-0.462c0.048,0.003,0.869,0.038,1.593-0.662c0.778-0.752,1.167-2.119,1.124-3.952 c-0.006-0.276,0.212-0.505,0.488-0.511c0.285-0.017,0.505,0.212,0.512,0.488c0.05,2.166-0.438,3.752-1.451,4.715 C31.767,59.329,30.745,59.401,30.425,59.401z"/></g><g><path fill="#472b29" d="M72.237,45.65c-0.215,0-0.414-0.14-0.479-0.357c-0.357-1.19-0.839-2.16-0.844-2.17 c-0.123-0.247-0.023-0.547,0.224-0.671c0.249-0.123,0.546-0.023,0.671,0.224c0.021,0.042,0.523,1.053,0.906,2.33 c0.08,0.264-0.07,0.543-0.335,0.623C72.333,45.643,72.285,45.65,72.237,45.65z"/></g><g><path fill="#472b29" d="M53.862,72.646c-0.133,0-0.243-0.104-0.25-0.238c-0.007-0.138,0.1-0.255,0.237-0.262 c3.5-0.171,6.606-1.445,9.234-3.786c0.101-0.091,0.26-0.083,0.353,0.021c0.092,0.103,0.083,0.261-0.021,0.353 c-2.677,2.385-5.976,3.738-9.542,3.912C53.87,72.646,53.866,72.646,53.862,72.646z"/></g><g><path fill="#472b29" d="M51.112,72.553c-0.009,0-0.019,0-0.028-0.002c-3.202-0.367-6.484-1.645-9.242-3.597 c-0.112-0.08-0.14-0.236-0.06-0.349s0.235-0.139,0.349-0.06c2.69,1.905,5.891,3.15,9.01,3.508c0.138,0.016,0.235,0.14,0.22,0.277 C51.346,72.459,51.238,72.553,51.112,72.553z"/></g><g><path fill="#472b29" d="M39.986,67.379c-0.061,0-0.122-0.022-0.17-0.067c-1.378-1.278-2.488-2.68-3.299-4.168 c-0.065-0.121-0.021-0.273,0.1-0.339c0.12-0.065,0.272-0.022,0.34,0.1c0.784,1.44,1.861,2.799,3.199,4.041 c0.102,0.094,0.107,0.252,0.014,0.353C40.12,67.352,40.054,67.379,39.986,67.379z"/></g><g><path fill="#fdfcef" d="M78.25,71.5c0,0,1.567,0,3.5,0s3.5-1.567,3.5-3.5c0-1.781-1.335-3.234-3.055-3.455 c0.028-0.179,0.055-0.358,0.055-0.545c0-1.933-1.567-3.5-3.5-3.5c-1.032,0-1.95,0.455-2.59,1.165 c-0.384-1.808-1.987-3.165-3.91-3.165c-2.209,0-4,1.791-4,4c0,0.191,0.03,0.374,0.056,0.558c-0.428-0.344-0.965-0.558-1.556-0.558 c-1.228,0-2.245,0.887-2.455,2.055c-0.179-0.028-0.358-0.055-0.545-0.055c-1.933,0-3.5,1.567-3.5,3.5s1.567,3.5,3.5,3.5 s7.5,0,7.5,0V72h7V71.5z"/><path fill="#472b29" d="M80,67c-0.138,0-0.25-0.112-0.25-0.25c0-1.223,0.995-2.218,2.218-2.218 c0.034,0.009,0.737-0.001,1.244,0.136c0.133,0.036,0.212,0.173,0.176,0.306c-0.036,0.134-0.173,0.213-0.306,0.176 c-0.444-0.12-1.1-0.12-1.113-0.118c-0.948,0-1.719,0.771-1.719,1.718C80.25,66.888,80.138,67,80,67z"/><circle cx="73.25" cy="71.5" r=".5" fill="#472b29"/><path fill="#472b29" d="M81.75,72h-3.5c-0.276,0-0.5-0.224-0.5-0.5s0.224-0.5,0.5-0.5h3.5c1.654,0,3-1.346,3-3 c0-1.496-1.125-2.768-2.618-2.959c-0.134-0.018-0.255-0.088-0.336-0.196s-0.115-0.244-0.094-0.377 C81.725,64.314,81.75,64.16,81.75,64c0-1.654-1.346-3-3-3c-0.85,0-1.638,0.355-2.219,1c-0.125,0.139-0.321,0.198-0.5,0.148 c-0.182-0.049-0.321-0.195-0.36-0.379C75.33,60.165,73.891,59,72.25,59c-1.93,0-3.5,1.57-3.5,3.5c0,0.143,0.021,0.28,0.041,0.418 c0.029,0.203-0.063,0.438-0.242,0.54c-0.179,0.102-0.396,0.118-0.556-0.01C67.628,63.155,67.199,63,66.75,63 c-0.966,0-1.792,0.691-1.963,1.644c-0.048,0.267-0.296,0.446-0.569,0.405C64.064,65.025,63.91,65,63.75,65c-1.654,0-3,1.346-3,3 s1.346,3,3,3h7.5c0.276,0,0.5,0.224,0.5,0.5s-0.224,0.5-0.5,0.5h-7.5c-2.206,0-4-1.794-4-4s1.794-4,4-4 c0.059,0,0.116,0.002,0.174,0.006C64.338,62.82,65.461,62,66.75,62c0.349,0,0.689,0.061,1.011,0.18 C67.926,59.847,69.876,58,72.25,58c1.831,0,3.466,1.127,4.153,2.774C77.083,60.276,77.905,60,78.75,60c2.206,0,4,1.794,4,4 c0,0.048-0.001,0.095-0.004,0.142C84.489,64.59,85.75,66.169,85.75,68C85.75,70.206,83.956,72,81.75,72z"/><path fill="#472b29" d="M76.25,71c-0.159,0-0.841,0-1,0c-0.276,0-0.5,0.224-0.5,0.5c0,0.276,0.224,0.5,0.5,0.5 c0.159,0,0.841,0,1,0c0.276,0,0.5-0.224,0.5-0.5C76.75,71.224,76.526,71,76.25,71z"/></g></svg>