<svg xmlns="http://www.w3.org/2000/svg"  viewBox="0 0 50 50"><path d="M 28.998047 0 A 1.0001 1.0001 0 0 0 28.105469 1.4472656 C 28.105469 1.4472656 28.290451 1.7933606 28.523438 2.8417969 C 28.655769 3.4372889 28.702433 4.7472235 28.794922 5.7714844 C 27.135026 4.49173 24.615883 3 20.5 3 C 17.277778 3 15.125882 4.1053349 13.835938 5.2519531 C 13.146756 5.8645583 12.717098 6.4684552 12.439453 6.9335938 C 12.219817 6.895809 11.974032 6.8547535 11.603516 6.6992188 C 10.6857 6.3139396 9.3334746 5.4439817 7.8007812 3.4003906 A 1.0001 1.0001 0 0 0 6 4 C 6 6.5180777 6.8338206 8.6299403 7.4589844 10 L 3 10 A 1.0001 1.0001 0 0 0 2.7578125 11.970703 C 4.726245 12.462811 5.7637118 13.327239 6.3476562 14.039062 C 6.8165499 14.610641 6.8506274 14.849525 6.8925781 14.992188 C 6.4728139 15.676967 5 18.217168 5 22 C 5 26.291667 6.9627025 28.917834 8.9179688 30.314453 C 10.226791 31.249326 11.496995 31.658851 12.228516 31.84375 C 12.753313 33.456236 14.180453 34.665036 15.955078 34.888672 C 15.926908 35.946855 15.815762 38.611953 15.029297 41.757812 C 14.705439 43.055088 14 44.891833 14 49 A 1.0001 1.0001 0 1 0 16 49 C 16 45.108167 16.592561 43.756911 16.970703 42.242188 C 18.008748 38.090007 18 34 18 34 A 1.0001 1.0001 0 0 0 17 33 L 16.5 33 C 15.022333 33 14 31.915669 14 30.5 C 14 29.030183 14.973457 28 16 28 C 16.75 28 17.185226 28.245244 17.501953 28.601562 C 17.81868 28.957881 18 29.472222 18 30 A 1.0001 1.0001 0 0 0 18.916016 31.009766 A 1.0001 1.0001 0 0 0 19.015625 31.013672 A 1.0001 1.0001 0 0 0 20 30 C 20 24.662278 19.29713 21.438177 18.527344 19.380859 L 19.552734 19.894531 A 1.0001 1.0001 0 0 0 21 19 C 21 19 21.01482 16.410723 19.488281 14.136719 C 26.865179 14.473131 30.943617 16.120224 34.033203 17.892578 C 34.358039 18.07871 34.696844 18.240552 35.041016 18.380859 C 35.093231 18.867504 35.275337 19.85846 35.951172 21.037109 C 34.748394 21.158793 33.665686 21.672084 32.820312 22.445312 C 31.725226 20.966147 29.972412 20 28 20 C 26.083334 20 24.518559 20.754756 23.501953 21.898438 C 22.485347 23.042119 22 24.527778 22 26 C 22 27.472222 22.485347 28.957882 23.501953 30.101562 C 24.518559 31.245244 26.083334 32 28 32 C 30.196542 32 32.12043 30.802762 33.166016 29.03125 C 33.266011 29.059149 33.408756 29.110879 33.611328 29.232422 C 34.034565 29.486364 34.614027 30.006143 35.050781 31.316406 A 1.0001 1.0001 0 0 0 36 32 L 38 32 C 38.56503 32 39 32.43497 39 33 C 39 33.547525 38.588261 33.964402 38.048828 33.990234 A 1.0001 1.0001 0 0 0 37.988281 33.988281 A 1.0001 1.0001 0 0 0 37.851562 34 L 34 34 A 1.0001 1.0001 0 1 0 34 36 L 37.464844 36 L 40.726562 40.894531 C 40.626008 40.980871 40.577855 41.047643 40.414062 41.148438 C 39.777012 41.540469 38.601852 42 36.5 42 C 35.3709 42 34.341297 41.926654 33.388672 41.8125 A 1.0001 1.0001 0 0 0 33.160156 41.785156 C 31.105996 41.519226 29.463071 41.043102 28.248047 40.568359 C 26.500718 39.885631 25.76972 39.307335 25.710938 39.261719 C 25.849065 38.870692 26 38.484919 26 38 A 1.0001 1.0001 0 1 0 24 38 C 24 39.333333 22.552734 40.105469 22.552734 40.105469 A 1.0001163 1.0001163 0 1 0 23.447266 41.894531 C 23.447266 41.894531 24.077607 41.583563 24.708984 40.957031 C 24.911666 41.105333 25.703221 41.72196 27.519531 42.431641 C 28.678926 42.884647 30.170616 43.328292 31.966797 43.628906 C 31.951177 43.661887 31.952914 43.674244 31.933594 43.710938 C 31.736623 44.085088 31.365654 44.567985 30.460938 44.955078 C 29.998963 45.152661 29.182302 45.460324 28.433594 46.066406 C 27.684928 46.672484 27 47.686667 27 49 A 1.0001 1.0001 0 1 0 29 49 C 29 48.313333 29.256365 47.973262 29.691406 47.621094 C 30.126448 47.268926 30.73502 47.014339 31.248047 46.794922 C 32.55433 46.236015 33.317846 45.37638 33.703125 44.644531 C 33.847659 44.369986 33.933224 44.114929 33.996094 43.886719 C 34.785629 43.956095 35.61493 44 36.5 44 C 38.898148 44 40.472988 43.459531 41.460938 42.851562 C 41.954912 42.547579 42.299168 42.229243 42.525391 41.970703 C 42.751613 41.712163 42.894531 41.447266 42.894531 41.447266 A 1.0001 1.0001 0 0 0 42.832031 40.445312 L 39.564453 35.542969 C 40.419902 35.011865 41 34.071462 41 33 C 41 32.108827 40.594797 31.311389 39.96875 30.759766 C 41.206482 29.749171 42 28.213339 42 26.5 C 42 24.536644 40.954878 22.81152 39.396484 21.837891 L 39.402344 21.828125 C 37.945461 20.917641 37.381977 19.745341 37.15625 18.9375 C 37.444447 18.973799 37.729651 19 38 19 C 39.137767 19 40.594569 18.807179 41.845703 17.904297 C 43.096837 17.001415 44 15.356763 44 13 C 44 5.4285714 37.554688 1.1679686 37.554688 1.1679688 A 1.0001 1.0001 0 0 0 36.013672 2.1640625 L 36.373047 4.3203125 C 34.705971 2.5560971 32.309421 0.64235277 29.195312 0.01953125 A 1.0001 1.0001 0 0 0 28.998047 0 z M 30.503906 2.7089844 C 34.378709 4.4300374 37.144531 8.5195312 37.144531 8.5195312 A 1.0001 1.0001 0 0 0 38.986328 7.8359375 L 38.478516 4.7890625 C 40.112886 6.4352704 42 8.9242764 42 13 C 42 14.890237 41.417647 15.745882 40.675781 16.28125 C 39.933915 16.816618 38.890233 17 38 17 C 37.234 17 35.940273 16.681314 35.027344 16.158203 C 31.411607 14.08402 26.444354 12 17 12 A 1.0001 1.0001 0 0 0 16.445312 13.832031 C 17.809366 14.7414 18.392969 16.087946 18.689453 17.226562 L 16.447266 16.105469 A 1.0001 1.0001 0 0 0 15.445312 17.832031 C 15.445312 17.832031 15.463972 17.823431 15.681641 18.101562 C 15.899309 18.379694 16.228571 18.886856 16.572266 19.746094 C 17.092102 21.045685 17.639652 23.155033 17.876953 26.443359 C 17.32832 26.170074 16.698611 26 16 26 C 13.968687 26 12.398231 27.661388 12.070312 29.710938 C 11.512378 29.513445 10.806585 29.203085 10.082031 28.685547 C 8.5372976 27.582166 7 25.708333 7 22 C 7 18.333333 8.8320312 15.554687 8.8320312 15.554688 A 1.0001 1.0001 0 0 0 8.9746094 14.773438 C 8.9746094 14.773438 8.7295869 13.789411 7.8945312 12.771484 C 7.684154 12.515036 7.3039408 12.260654 7.0097656 12 L 9 12 A 1.0001 1.0001 0 0 0 9.8828125 10.529297 C 9.8828125 10.529297 9.2567412 9.0181679 8.7050781 7.2421875 C 9.4790559 7.863711 10.19993 8.2792658 10.828125 8.5429688 C 11.463842 8.8098292 12.002811 8.9289714 12.398438 8.9765625 C 12.794064 9.0241535 13.117188 8.9941406 13.117188 8.9941406 A 1.0001 1.0001 0 0 0 13.935547 8.3515625 C 13.935547 8.3515625 14.204009 7.6014286 15.164062 6.7480469 C 16.124117 5.8946652 17.722222 5 20.5 5 C 26.055556 5 29.248047 8.6582031 29.248047 8.6582031 A 1.0001 1.0001 0 0 0 31 8 C 31 5.5713591 30.754847 3.9095771 30.503906 2.7089844 z M 28 22 C 30.220986 22 32 23.779015 32 26 C 32 28.220985 30.220986 30 28 30 C 26.583334 30 25.648107 29.504756 24.998047 28.773438 C 24.347987 28.042119 24 27.027778 24 26 C 24 24.972222 24.347987 23.957882 24.998047 23.226562 C 25.648107 22.495244 26.583334 22 28 22 z M 36.5 23 C 38.444423 23 40 24.555577 40 26.5 C 40 28.413594 38.491014 29.941978 36.589844 29.990234 C 36.033 28.783306 35.324437 27.929037 34.638672 27.517578 C 34.371823 27.357469 34.117813 27.258111 33.880859 27.181641 C 33.958022 26.799049 34 26.404572 34 26 C 34 25.425731 33.911979 24.872429 33.759766 24.345703 C 33.759766 24.345703 33.761719 24.34375 33.761719 24.34375 C 34.400761 23.524628 35.37943 23 36.5 23 z M 29 25 A 1 1 0 0 0 29 27 A 1 1 0 0 0 29 25 z M 38 25 A 1 1 0 0 0 38 27 A 1 1 0 0 0 38 25 z"/></svg>